<?xml version="1.0" standalone="no"?>
<!DOCTYPE svg PUBLIC "-//W3C//DTD SVG 20010904//EN"
 "http://www.w3.org/TR/2001/REC-SVG-20010904/DTD/svg10.dtd">
<svg version="1.0" xmlns="http://www.w3.org/2000/svg"
 width="889.000000pt" height="1280.000000pt" viewBox="0 0 889.000000 1280.000000"
 preserveAspectRatio="xMidYMid meet">
<metadata>
Created by potrace 1.15, written by Peter Selinger 2001-2017
</metadata>
<g transform="translate(0.000000,1280.000000) scale(0.100000,-0.100000)"
fill="#000000" stroke="none">
<path d="M5540 12794 c-346 -43 -644 -202 -890 -475 -348 -386 -660 -876
-1044 -1639 -440 -874 -926 -2053 -1371 -3330 -32 -91 -65 -174 -75 -185 -9
-11 -49 -128 -88 -260 -39 -132 -75 -252 -80 -266 l-10 -26 -219 -6 c-650 -20
-1088 -131 -1405 -357 -102 -73 -222 -194 -279 -282 -69 -108 -95 -235 -65
-319 9 -26 10 -55 3 -110 -12 -97 10 -224 52 -316 25 -51 54 -88 129 -163 105
-104 164 -147 306 -221 199 -103 597 -226 926 -284 130 -23 126 -21 89 -52
-94 -79 -118 -173 -58 -232 l30 -31 -22 -32 c-12 -18 -100 -112 -194 -208
-263 -268 -363 -403 -445 -603 -77 -189 -112 -360 -130 -630 -13 -184 -6 -422
11 -444 28 -33 70 -12 171 85 40 39 59 51 62 41 2 -8 18 -99 35 -204 40 -243
113 -570 153 -683 61 -175 166 -355 300 -517 82 -101 102 -114 129 -89 23 21
36 66 45 155 l7 67 36 -21 c20 -12 137 -120 261 -242 291 -285 419 -386 680
-537 150 -87 494 -258 518 -258 30 0 39 23 47 120 10 132 28 170 80 170 9 0
44 -25 78 -55 152 -136 355 -256 524 -309 158 -49 266 -57 424 -30 266 46 524
189 888 495 165 138 169 142 184 136 7 -2 20 -52 31 -113 24 -137 49 -207 83
-229 25 -17 25 -17 90 46 90 89 471 588 517 676 38 74 68 65 122 -37 43 -82
76 -120 103 -120 28 0 70 60 169 239 125 226 237 491 328 776 15 46 39 43 76
-11 18 -27 47 -64 65 -84 27 -29 35 -33 50 -24 44 27 73 256 73 570 0 514 -65
903 -201 1203 -38 83 -127 215 -178 266 -58 56 -55 68 17 63 69 -5 167 -47
230 -100 91 -74 140 -81 121 -16 -39 139 -293 452 -502 622 l-89 71 37 3 c21
2 115 -4 210 -12 215 -20 314 -20 528 -1 338 30 572 76 785 154 350 129 591
363 761 735 25 55 58 117 73 137 127 166 38 309 -226 364 -91 18 -112 15 -210
-31 -112 -53 -231 -74 -453 -81 -246 -7 -425 6 -823 63 -269 39 -705 115 -713
125 -2 2 -20 157 -40 344 -20 187 -73 673 -117 1080 -44 407 -117 1071 -161
1475 -43 404 -115 1064 -159 1465 -44 402 -92 841 -106 977 -15 137 -24 251
-20 255 13 14 287 15 386 3 187 -24 280 -66 474 -214 225 -173 349 -241 556
-310 128 -42 290 -86 290 -79 0 3 -42 81 -94 172 -51 91 -135 245 -186 341
-275 518 -422 738 -649 973 -119 123 -277 254 -351 292 -67 34 -215 83 -304
101 -72 14 -321 26 -386 18z"/>
</g>
</svg>
